<svg id="Layer_1" data-name="Layer 1" xmlns="http://www.w3.org/2000/svg" viewBox="0 0 3376 2000"><defs><style>.cls-1{fill:#bcec34;}</style></defs><title>full logo primary 2</title><g id="Logo_B_4" data-name="Logo B #4"><path class="cls-1" d="M487.42,1013.35c.62-57.61,47.93-104.56,105.68-104.56h73.78V821.62c-2.26-.08-4.52-.12-6.8-.12H602.34c-106.7,0-194.33,85.83-197.26,191.85H405v18.89H657.17c-100.66,5.75-181.75,87.85-185.88,188.92H553.6c2-56.42,48.75-102,105.62-102H733V1013.35Z"/><path class="cls-1" d="M1214.85,1163.55q-23.4,0-41.85-8.78a96.27,96.27,0,0,1-31-23,103.08,103.08,0,0,1-19.35-31.72,97.17,97.17,0,0,1-6.75-35.1v-41.4a91.86,91.86,0,0,1,7.2-35.1,108.77,108.77,0,0,1,20.25-32,101.31,101.31,0,0,1,32-23.4q18.9-9,42.3-9h16.65q23.4,0,42.3,9a101.31,101.31,0,0,1,32,23.4,108.77,108.77,0,0,1,20.25,32,91.86,91.86,0,0,1,7.2,35.1V1065a97.17,97.17,0,0,1-6.75,35.1,103.08,103.08,0,0,1-19.35,31.72,96.27,96.27,0,0,1-31,23q-18.45,8.77-41.85,8.78ZM1162.2,1023.6V1065q0,13.95,5.4,24.52a53.69,53.69,0,0,0,14.4,17.78,62.71,62.71,0,0,0,20.25,10.8,76.31,76.31,0,0,0,23.4,3.6,78.38,78.38,0,0,0,23.62-3.6,62.31,62.31,0,0,0,20.48-10.8,53.69,53.69,0,0,0,14.4-17.78q5.4-10.56,5.4-24.52v-41.4q0-14.4-5.4-25.2a51,51,0,0,0-14.4-17.78,65,65,0,0,0-20.48-10.57,79.24,79.24,0,0,0-47.92.22,58.09,58.09,0,0,0-20.25,11.25,56.29,56.29,0,0,0-13.72,18A54,54,0,0,0,1162.2,1023.6Z"/><path class="cls-1" d="M1494.3,835.5l-6.3,44.1h-8.1a109.15,109.15,0,0,0-18.23,1.57,47.84,47.84,0,0,0-16.42,5.85,34.18,34.18,0,0,0-11.7,11.48q-4.52,7.2-4.5,18v12.15h62.1V967.8h-62.1v191.7H1382.7V967.8h-30.6V928.65h30.6v-13q0-20.25,7-34.43a78.79,78.79,0,0,1,18.68-24.52,80.54,80.54,0,0,1,36.45-18.23,151.67,151.67,0,0,1,42.75-3.37Z"/><path class="cls-1" d="M1649.09,1163.1a36.06,36.06,0,0,1-5.85.67l-8.55.45q-4.5.22-8.55.23h-6.3q-39.15,0-55.8-20T1547.39,1083V967.8h-45.9V939.9A88.65,88.65,0,0,0,1524,937a50,50,0,0,0,20-10.35q8.77-7.43,14.17-20.47t5.4-32.85h30.15v55.35h57.15V967.8h-57.15v114.3q0,22.05,8.55,29.47t27,7.43h25.2Z"/><path class="cls-1" d="M1675.19,837.75h46.35V1160h-46.35Z"/><path class="cls-1" d="M1852.49,924.15q23.4,0,41.4,7T1924,949.8a79.44,79.44,0,0,1,18.45,26.77,80.4,80.4,0,0,1,6.3,31.28V1160h-40.5l-4.5-24.3v-.45a110.58,110.58,0,0,1-31.27,20.92q-18.23,8.33-43,8.33a105.27,105.27,0,0,1-30.6-4.5,84.84,84.84,0,0,1-26.55-13.28,65.42,65.42,0,0,1-18.67-21.82q-7-13-7-30.6a64.78,64.78,0,0,1,5.63-26.33,67.94,67.94,0,0,1,16.65-23q11-10.12,27.67-16.42t38.7-6.3h68.4v-14a37.06,37.06,0,0,0-4.5-18.68,41,41,0,0,0-11.7-13,50.58,50.58,0,0,0-16.42-7.65,72.29,72.29,0,0,0-18.68-2.47,67.17,67.17,0,0,0-18.22,2.47,57.54,57.54,0,0,0-16,7.2,41.07,41.07,0,0,0-11.92,11.93,36.08,36.08,0,0,0-5.63,16.65h-45a85.89,85.89,0,0,1,7.43-30.38,76.38,76.38,0,0,1,18.67-25.65q12.15-11,29.93-17.77T1852.49,924.15Zm-19.35,134.1q-19.8,0-29.92,9.67t-10.58,21.38a31.76,31.76,0,0,0,2.7,12.6,30.42,30.42,0,0,0,8.55,11.25,43.37,43.37,0,0,0,14.85,7.87q9,2.94,21.6,2.93a66.78,66.78,0,0,0,22.28-4,62.07,62.07,0,0,0,20.47-11.93,64.72,64.72,0,0,0,14.85-19.12,54.78,54.78,0,0,0,5.85-25.65v-5Z"/><path class="cls-1" d="M2143.19,1160V1023.6a58.58,58.58,0,0,0-3.6-19.58,55.71,55.71,0,0,0-11-18.45,59.48,59.48,0,0,0-18.45-13.72q-11-5.4-25.87-5.4a58.09,58.09,0,0,0-24.08,4.95,65.06,65.06,0,0,0-18.9,12.6,54.25,54.25,0,0,0-12.15,17.55,48.6,48.6,0,0,0-4.27,19.35V1160h-46.35V928.65h41.85l4.5,24.3a93.32,93.32,0,0,1,33.52-21.6,110.91,110.91,0,0,1,39.38-7.2,102.49,102.49,0,0,1,34.2,5.85,81.9,81.9,0,0,1,29.47,18q12.83,12.15,20.48,31t7.65,44.55V1160Z"/><path class="cls-1" d="M2261.09,1056.9v8.1a55.23,55.23,0,0,0,3.82,19.57,58.6,58.6,0,0,0,11.25,18.45,56.25,56.25,0,0,0,18.45,13.5q11,5.19,25.88,5.18a99.34,99.34,0,0,0,21.15-2.25,60,60,0,0,0,18.22-7,41.92,41.92,0,0,0,12.83-11.7,27.68,27.68,0,0,0,4.95-16.42h45.9a64.06,64.06,0,0,1-7.43,29.7,81.29,81.29,0,0,1-20.7,25.42,104.64,104.64,0,0,1-30.82,17.55,107.61,107.61,0,0,1-37.8,6.53h-13.05q-23.41,0-41.85-8.78a96,96,0,0,1-31-23,102.89,102.89,0,0,1-19.35-31.72,97.17,97.17,0,0,1-6.75-35.1v-41.4a91.67,91.67,0,0,1,7.2-35.1,108.37,108.37,0,0,1,20.25-32,101.19,101.19,0,0,1,31.95-23.4q18.9-9,42.3-9h7.65a100.09,100.09,0,0,1,38.7,7.65,107.1,107.1,0,0,1,32.4,20.7,102,102,0,0,1,18,22.27,83.58,83.58,0,0,1,9,23,134.77,134.77,0,0,1,3.15,25q.43,13,.45,27.9v6.3Zm119.7-38.7a48.1,48.1,0,0,0-4.73-21.38,50.68,50.68,0,0,0-12.6-16.42,56,56,0,0,0-18.22-10.35,65.36,65.36,0,0,0-21.6-3.6,61.67,61.67,0,0,0-24.53,4.72A67.14,67.14,0,0,0,2280,983.32a59.17,59.17,0,0,0-12.83,16.65,51,51,0,0,0-5.62,18.23Z"/><path class="cls-1" d="M2480.69,1112.25V1160h-46.35v-47.7Z"/><path class="cls-1" d="M2557.37,1100.19a34.13,34.13,0,0,1-11.85-23.17l12.45-4.5a25.43,25.43,0,0,0,3.6,11.77,25.74,25.74,0,0,0,9.75,9.3q6.45,3.69,15.6,3.68,11.4,0,17.7-5.63t6.3-14.92q0-6.9-3.75-10.88a23.27,23.27,0,0,0-9.22-5.92,145.5,145.5,0,0,0-15.23-4.2,126.34,126.34,0,0,1-17.25-4.88,26.79,26.79,0,0,1-11-7.87q-4.59-5.4-4.58-14.7,0-14.7,10.27-22.43t26.18-7.72q14.4,0,23.55,7t12.6,20.55l-12,3.75a24.81,24.81,0,0,0-8.4-14.48q-6.45-5.31-16.8-5.32-9.3,0-15.82,4.35t-6.53,12.6a11.5,11.5,0,0,0,3.3,8.62,21.1,21.1,0,0,0,8.17,4.88,121.15,121.15,0,0,0,13.58,3.45,135.14,135.14,0,0,1,18.6,5.25,28.47,28.47,0,0,1,12.07,8.92q5,6.23,5,17.18,0,15.6-10.05,24.9t-28.5,9.3Q2567.72,1109.12,2557.37,1100.19Z"/><path class="cls-1" d="M2660.87,1011.32H2630v-11.7h74.55v11.7h-30.75v96.3h-12.9Z"/><path class="cls-1" d="M2726.42,1100.79q-10.65-8.32-10.65-23.47v-77.7h12.9v75.15q0,10.8,6.75,16.57t20.4,5.78q12.9,0,18.3-5.63t5.4-16.72V999.62h12.9v77.7q0,15.45-9.45,23.62t-27.6,8.18Q2737.07,1109.12,2726.42,1100.79Z"/><path class="cls-1" d="M2807.27,999.62h32.25q23.85,0,36.22,14.55t12.38,39.9q0,25.2-12.3,39.37t-36.3,14.18h-32.25Zm32.55,95.85q18,0,26.47-11t8.48-30.45q0-19.8-8.63-31t-26.32-11.25h-19.65v83.7Z"/><path class="cls-1" d="M2902.82,999.62h12.9v108h-12.9Z"/><path class="cls-1" d="M2956,1103.57q-11.47-5.55-18.52-17.93t-7-31.57q0-19.35,7-31.95t18.6-18.38a59.23,59.23,0,0,1,51,0q11.4,5.78,18.22,18.3t6.83,32q0,28.65-14.18,41.85t-36.52,13.2A57.64,57.64,0,0,1,2956,1103.57Zm52.58-17.63q10.2-10.26,10.2-31.87,0-21.9-10.28-32.55t-27.07-10.65a39.6,39.6,0,0,0-19.13,4.57,32.82,32.82,0,0,0-13.5,14.25q-5,9.68-5,24.38,0,21.45,10.5,31.8t27.15,10.35Q2998.37,1096.22,3008.57,1085.94Z"/><path class="cls-1" d="M1091.27,948.78h-46.35q0-13.95-5.4-23.85a50.14,50.14,0,0,0-14.17-16.43,57.57,57.57,0,0,0-20.25-9.45,94,94,0,0,0-23.18-2.92,98.45,98.45,0,0,0-23.85,2.92,79.39,79.39,0,0,0-20.92,8.33,47.34,47.34,0,0,0-14.85,13.27,29.81,29.81,0,0,0-5.63,17.78q0,15.75,13.05,25.42t32.85,16.65q19.8,7,42.53,13.5a248.51,248.51,0,0,1,42.52,16.43,103.11,103.11,0,0,1,32.85,25.2q13,15.3,13,39.6,0,22.05-9.45,39.15a91.54,91.54,0,0,1-25.2,29,114.86,114.86,0,0,1-36.67,18.23,151.4,151.4,0,0,1-43.88,6.3,154.14,154.14,0,0,1-42.75-6.08,116.58,116.58,0,0,1-37.8-18.45,94.15,94.15,0,0,1-27-31.72q-10.35-19.35-10.35-46.35h46.35q0,15.3,6.3,26.77a55,55,0,0,0,16.43,18.68,73.52,73.52,0,0,0,23,10.8,95.29,95.29,0,0,0,25.87,3.6,105.84,105.84,0,0,0,24.53-2.93,88.66,88.66,0,0,0,22.27-8.32,48.82,48.82,0,0,0,16-13.5,29.94,29.94,0,0,0,6.07-18.45q0-16.2-13.05-25.2t-32.85-15.53q-19.8-6.51-42.52-12.6a215.16,215.16,0,0,1-42.53-16.2,100,100,0,0,1-32.85-26.32q-13.05-16.2-13-43.2,0-21.6,9.68-38.48a86.82,86.82,0,0,1,25.65-28.12,120.26,120.26,0,0,1,36.22-17.1,146.86,146.86,0,0,1,41-5.85,143.91,143.91,0,0,1,39.83,5.62,102.21,102.21,0,0,1,34.87,17.55,88.74,88.74,0,0,1,24.53,29.93Q1091.26,924.48,1091.27,948.78Z"/></g></svg>