<svg xmlns="http://www.w3.org/2000/svg" xmlns:xlink="http://www.w3.org/1999/xlink" viewBox="0 0 900 231.19"><defs><style>.cls-1{fill:url(#linear-gradient);}.cls-2{fill:url(#linear-gradient-2);}.cls-3{fill:url(#linear-gradient-3);}.cls-4{fill:url(#linear-gradient-4);}.cls-5{fill:#fff;}</style><linearGradient id="linear-gradient" x1="139.65" y1="-42.55" x2="46.96" y2="51.81" gradientTransform="translate(-18.92 36.87) rotate(-0.02)" gradientUnits="userSpaceOnUse"><stop offset="0" stop-color="#f7991e"/><stop offset="1" stop-color="#dc500d"/></linearGradient><linearGradient id="linear-gradient-2" x1="255.67" y1="84.79" x2="163.02" y2="-8.48" xlink:href="#linear-gradient"/><linearGradient id="linear-gradient-3" x1="129.52" y1="199.77" x2="220.96" y2="107.08" xlink:href="#linear-gradient"/><linearGradient id="linear-gradient-4" x1="13.46" y1="71.86" x2="104.48" y2="164.97" xlink:href="#linear-gradient"/></defs><g id="Layer_2" data-name="Layer 2"><g id="Layer_1-2" data-name="Layer 1"><path class="cls-1" d="M173.37,0l-57.76,57.8L57.8,115.62,0,57.86,57.8,0,105,0,59.56,45.43A16.13,16.13,0,1,0,70.23,56.06l56-56Z"/><path class="cls-2" d="M185.8,59.61a16.19,16.19,0,1,0-10.67,10.63l56,56v47.12l-57.8-57.77L115.61,57.82,173.37,0l57.8,57.76,0,47.16Z"/><path class="cls-3" d="M57.84,231.17l57.77-57.8,57.8-57.81,57.8,57.77-57.8,57.84-47.16,0,45.41-45.44A16.13,16.13,0,1,0,161,175.13l-56,56Z"/><path class="cls-4" d="M45.42,171.57a16.18,16.18,0,1,0,10.66-10.63l-56-56L0,57.84l57.8,57.76,57.77,57.77-57.77,57.8L0,173.41l0-47.16Z"/><path class="cls-5" d="M310.56,18.29c20.09,0,32.25,12.4,32.25,27.56H323.55c0-6.14-4.33-12.63-13-12.63-8.31,0-13,4.57-13,9.74,0,7,7.7,8.55,15.64,10.47,18.78,4.21,32,11.68,32,28.76,0,14.32-13.84,24.91-33.69,24.91-22.38,0-36.1-13.71-36.1-30.08h19.25c-.12,7.1,5.78,15.16,16.85,15.16,8.42,0,14.44-4.57,14.44-10.59,0-7.58-8.06-9.26-16.85-11.31-20.7-4.93-30.8-12.52-30.8-27.8C278.31,28.4,291.78,18.29,310.56,18.29Z"/><path class="cls-5" d="M353.88,62.7c0-26,17.57-44.41,42.48-44.41S439.08,36.7,439.08,62.7s-17.69,44.4-42.72,44.4S353.88,88.69,353.88,62.7Zm42.48,27.68c14.32,0,23.47-11.56,23.47-27.68S410.68,35,396.36,35,373.14,46.57,373.14,62.7,382.16,90.38,396.36,90.38Z"/><path class="cls-5" d="M450.76,20.58h63.42V37.31H470V55.48h36.71V69.92H470v34.9H450.76Z"/><path class="cls-5" d="M519.11,37.31V20.58h71.12V37.31H564.36v67.51H545.11V37.31Z"/><path class="cls-5" d="M618.28,20.58V88.09H657v16.73H599V20.58Z"/><path class="cls-5" d="M716,20.58l24.79,84.24h-20l-4.94-17.69H685.31l-4.94,17.69H660.28l24.91-84.24ZM711.18,70.4,700.59,32.61,690,70.4Z"/><path class="cls-5" d="M770.63,20.58l30.69,55.84V20.58h19.25v84.24H799.75l-30.81-56v56H749.69V20.58Z"/><path class="cls-5" d="M833.57,20.58H900V37.31H852.83V55.48h42.72V69.92H852.83V88.09H900v16.73H833.57Z"/><path class="cls-5" d="M310.56,124c20.09,0,32.25,12.4,32.25,27.56H323.55c0-6.14-4.33-12.64-13-12.64-8.31,0-13,4.58-13,9.75,0,7,7.7,8.55,15.64,10.47,18.78,4.21,32,11.68,32,28.76,0,14.32-13.84,24.91-33.69,24.91-22.38,0-36.1-13.72-36.1-30.08h19.25c-.12,7.1,5.78,15.16,16.85,15.16,8.42,0,14.44-4.57,14.44-10.59,0-7.58-8.06-9.27-16.85-11.31-20.7-4.93-30.8-12.52-30.8-27.8C278.31,134.13,291.78,124,310.56,124Z"/><path class="cls-5" d="M349.55,143V126.31h71.12V143H394.8v67.51H375.54V143Z"/><path class="cls-5" d="M464.48,212.83c-20.46,0-35.62-13.84-35.62-33.33V126.31h19.25v52c0,10.23,6.86,17.81,16.37,17.81,9.26,0,16.24-7.58,16.24-17.81v-52H500V179.5C500,199,484.82,212.83,464.48,212.83Z"/><path class="cls-5" d="M586.14,168.43c0,24.67-15.28,42.12-37.3,42.12H513V126.31h35.86C570.86,126.31,586.14,143.76,586.14,168.43Zm-37.3,25.39c10.71,0,18-11.43,18-25.39s-7.22-25.39-18-25.39H532.23v50.78Z"/><path class="cls-5" d="M598.3,126.31h19.26v84.24H598.3Z"/><path class="cls-5" d="M629.47,168.43c0-26,17.57-44.41,42.48-44.41s42.72,18.41,42.72,44.41S697,212.83,672,212.83,629.47,194.42,629.47,168.43ZM672,196.11c14.32,0,23.47-11.56,23.47-27.68s-9.15-27.68-23.47-27.68-23.22,11.55-23.22,27.68S657.75,196.11,672,196.11Z"/></g></g></svg>