<svg xmlns="http://www.w3.org/2000/svg" xmlns:xlink="http://www.w3.org/1999/xlink" viewBox="0 0 343.32 343.28"><defs><style>.cls-1{fill:url(#linear-gradient);}.cls-2{fill:url(#linear-gradient-2);}.cls-3{fill:url(#linear-gradient-3);}.cls-4{fill:url(#linear-gradient-4);}</style><linearGradient id="linear-gradient" x1="197.4" y1="-46.03" x2="59.77" y2="94.08" gradientTransform="translate(-18.14 37.6) rotate(-0.02)" gradientUnits="userSpaceOnUse"><stop offset="0" stop-color="#f7991e"/><stop offset="1" stop-color="#dc500d"/></linearGradient><linearGradient id="linear-gradient-2" x1="369.67" y1="143.04" x2="232.09" y2="4.55" xlink:href="#linear-gradient"/><linearGradient id="linear-gradient-3" x1="182.36" y1="313.77" x2="318.13" y2="176.14" xlink:href="#linear-gradient"/><linearGradient id="linear-gradient-4" x1="10.03" y1="123.84" x2="145.18" y2="262.1" xlink:href="#linear-gradient"/></defs><g id="Layer_2" data-name="Layer 2"><g id="Layer_1-2" data-name="Layer 1"><path class="cls-1" d="M257.43,0,171.66,85.85,85.83,171.68,0,85.91,85.83,0l70,0L88.43,67.46a24,24,0,1,0,15.85,15.78L187.41.05Z"/><path class="cls-2" d="M275.88,88.52A24,24,0,1,0,260,104.3l83.19,83.13,0,70-85.83-85.77L171.66,85.85,257.43,0l85.83,85.77,0,70Z"/><path class="cls-3" d="M85.89,343.25l85.77-85.83,85.83-85.83,85.83,85.77-85.83,85.89-70,0,67.42-67.47A23.95,23.95,0,1,0,239,260l-83.13,83.19Z"/><path class="cls-4" d="M67.44,254.76A24,24,0,1,0,83.27,239L.08,155.84l0-70,85.83,85.77,85.77,85.77L85.89,343.25.06,257.48l0-70Z"/></g></g></svg>