<?xml version="1.0" encoding="UTF-8" standalone="no"?>
<!DOCTYPE svg PUBLIC "-//W3C//DTD SVG 1.1//EN" "http://www.w3.org/Graphics/SVG/1.1/DTD/svg11.dtd">
<svg width="100%" height="100%" viewBox="0 0 1477 1468" version="1.1" xmlns="http://www.w3.org/2000/svg" xmlns:xlink="http://www.w3.org/1999/xlink" xml:space="preserve" xmlns:serif="http://www.serif.com/" style="fill-rule:evenodd;clip-rule:evenodd;stroke-linejoin:round;stroke-miterlimit:2;">
    <g transform="matrix(1,0,0,1,-2406.97,-6595.26)">
        <g transform="matrix(4.16667,0,0,4.16667,0.000416667,6440.02)">
            <g transform="matrix(0.11732,0,0,0.11732,254.691,-29.6231)">
                <path d="M3369.02,595.841C3373.03,580.65 3386.77,570.068 3402.49,570.068C3418.2,570.068 3431.94,580.65 3435.95,595.841L3546.69,1014.87C3550.53,1029.39 3558.15,1042.63 3568.77,1053.26C3579.39,1063.88 3592.64,1071.5 3607.16,1075.34L4026.18,1186.07C4041.38,1190.09 4051.96,1203.83 4051.96,1219.54C4051.96,1235.25 4041.38,1249 4026.18,1253.01L3607.16,1363.75C3592.64,1367.59 3579.39,1375.2 3568.77,1385.83C3558.15,1396.45 3550.53,1409.69 3546.69,1424.22L3435.95,1843.24C3431.94,1858.43 3418.2,1869.01 3402.49,1869.01C3386.77,1869.01 3373.03,1858.43 3369.02,1843.24L3258.28,1424.22C3254.44,1409.69 3246.82,1396.45 3236.2,1385.83C3225.58,1375.2 3212.33,1367.59 3197.81,1363.75L2778.78,1253.01C2763.59,1249 2753.01,1235.25 2753.01,1219.54C2753.01,1203.83 2763.59,1190.09 2778.78,1186.07L3197.81,1075.34C3212.33,1071.5 3225.58,1063.88 3236.2,1053.26C3246.82,1042.63 3254.44,1029.39 3258.28,1014.87L3369.02,595.841Z" style="fill:rgb(255,195,138);"/>
            </g>
        </g>
        <g transform="matrix(4.16667,0,0,4.16667,0.000416667,6440.02)">
            <g transform="matrix(0.206782,0,0,0.206782,94.0888,3.04138)">
                <path d="M3369.02,595.841C3373.03,580.65 3386.77,570.068 3402.49,570.068C3418.2,570.068 3431.94,580.65 3435.95,595.841L3546.69,1014.87C3550.53,1029.39 3558.15,1042.63 3568.77,1053.26C3579.39,1063.88 3592.64,1071.5 3607.16,1075.34L4026.18,1186.07C4041.38,1190.09 4051.96,1203.83 4051.96,1219.54C4051.96,1235.25 4041.38,1249 4026.18,1253.01L3607.16,1363.75C3592.64,1367.59 3579.39,1375.2 3568.77,1385.83C3558.15,1396.45 3550.53,1409.69 3546.69,1424.22L3435.95,1843.24C3431.94,1858.43 3418.2,1869.01 3402.49,1869.01C3386.77,1869.01 3373.03,1858.43 3369.02,1843.24L3258.28,1424.22C3254.44,1409.69 3246.82,1396.45 3236.2,1385.83C3225.58,1375.2 3212.33,1367.59 3197.81,1363.75L2778.78,1253.01C2763.59,1249 2753.01,1235.25 2753.01,1219.54C2753.01,1203.83 2763.59,1190.09 2778.78,1186.07L3197.81,1075.34C3212.33,1071.5 3225.58,1063.88 3236.2,1053.26C3246.82,1042.63 3254.44,1029.39 3258.28,1014.87L3369.02,595.841Z" style="fill:rgb(255,195,138);"/>
            </g>
        </g>
    </g>
</svg>
